<svg xmlns="http://www.w3.org/2000/svg" viewBox="0 0 557.3 65.81"><title>gn-logo</title><path d="M48.65,8.84v18.4h5.88c4.06,0,4.65-5.21,4.65-9.44,0-5-.93-9-5.09-9ZM58,1.05c8.22,0,11.92,4.73,11.92,15.77s-3.54,12.33-7.55,14.35c8,3.06,7.32,11.69,7.32,11.69V59.25c0,5,.91,5.08.91,5.08H60.8c-1.34-1.11-1.57-6.63-1.57-6.63V42.86c0-4-.43-6.85-3-6.85H48.41V64.33h-9.5V1.05Z" style="fill:#fff;fill-rule:evenodd"/><path d="M89,39h5.14l-2.87-21L89,39ZM75.87,64.33,85.49,1.05H96.67l11.18,63.28H97.55L95.27,48h-6.8L86,64.33Z" style="fill:#fff;fill-rule:evenodd"/><polygon points="105.09 1.05 117.24 37.55 117.24 64.33 127.19 64.33 127.19 37.55 138.47 1.05 127.67 1.05 122.14 21.21 116.16 1.05 105.09 1.05 105.09 1.05" style="fill:#fff;fill-rule:evenodd"/><polygon points="146.34 38.2 146.34 31.8 136.38 31.8 136.38 38.2 146.34 38.2 146.34 38.2" style="fill:#fff;fill-rule:evenodd"/><polygon points="153.62 1.05 153.62 64.33 163.76 64.33 163.76 33.35 172.38 64.33 182.11 64.33 182.11 1.05 171.73 1.05 171.73 29.6 164.64 1.05 153.62 1.05 153.62 1.05" style="fill:#fff;fill-rule:evenodd"/><polygon points="200.13 64.33 200.13 1.05 189.57 1.05 189.57 64.33 200.13 64.33 200.13 64.33" style="fill:#fff;fill-rule:evenodd"/><polygon points="285.71 1.05 295.75 1.05 295.75 55.14 309.09 55.14 309.09 64.33 285.71 64.33 285.71 1.05 285.71 1.05" style="fill:#fff;fill-rule:evenodd"/><polygon points="315.18 1.05 325.19 1.05 325.19 55.14 338.53 55.14 338.53 64.33 315.18 64.33 315.18 1.05 315.18 1.05" style="fill:#fff;fill-rule:evenodd"/><path d="M557.3,41c-5.52,2.88-7.28,5.29-12,5.29s-7.73-5.16-15.9-5.16c-5.11,0-87.37.1-110.63.1S384.1,54.91,384.1,54.91v-45s11.51,13.71,34.7,13.71,105.52.11,110.63.11c8.17,0,11.29-5.18,15.9-5.18s6.44,2.42,12,5.3V41Z" style="fill:#fff;fill-rule:evenodd"/><path d="M246.47,50.87c0,19.72,31.83,19.72,31.83.12V14.73c0-19.66-31.83-19.66-31.83.12v36Zm21.1,1.47a5.18,5.18,0,0,1-10.36,0v-39a5.18,5.18,0,0,1,10.36,0v39Z" style="fill:#fff;fill-rule:evenodd"/><path d="M228.58,52.34a5.16,5.16,0,1,1-10.32,0v-39a5.16,5.16,0,1,1,10.32,0v7.9h10.76V14.73c0-19.66-31.83-19.66-31.83.12v36c0,19.72,31.83,19.72,31.83.12V42.74H228.58v9.6Z" style="fill:#fff;fill-rule:evenodd"/><path d="M16.8,36H21V52.34a5.16,5.16,0,1,1-10.31,0v-39a5.16,5.16,0,1,1,10.31,0v7.22H31.85v-5.8C31.85-4.93,0-4.93,0,14.85v36C0,64.85,16,70,24.06,61.73l2,2.6h5.76V27.14h-15V36Z" style="fill:#fff;fill-rule:evenodd"/><path d="M375.43,21.16V14.85c0-19.62-31.83-19.62-31.83.14v7.6a12.25,12.25,0,0,0,3.92,8s14.61,11,15,11.41a7.3,7.3,0,0,1,2.17,4.65v5.7a5.16,5.16,0,1,1-10.31,0V43H343.6v8c0,19.73,31.83,19.73,31.83.13v-7.2a12.27,12.27,0,0,0-3.71-8.38s-14.73-11.19-15-11.41a6.86,6.86,0,0,1-2.38-4.76c-.05-.19,0-6.06,0-6.06a5.16,5.16,0,1,1,10.31,0v7.85Z" style="fill:#fff;fill-rule:evenodd"/></svg>